<mxfile host="app.diagrams.net" modified="2023-12-13T09:36:05.248Z" agent="Mozilla/5.0 (Windows NT 10.0; Win64; x64) AppleWebKit/537.36 (KHTML, like Gecko) Chrome/117.0.0.0 Safari/537.36" etag="kjKz_0viEL9phXGD6vFS" version="22.1.8" type="github">
  <diagram id="C5RBs43oDa-KdzZeNtuy" name="Page-1">
    <mxGraphModel dx="1694" dy="1192" grid="0" gridSize="10" guides="1" tooltips="1" connect="1" arrows="1" fold="1" page="0" pageScale="1" pageWidth="827" pageHeight="1169" math="0" shadow="0">
      <root>
        <mxCell id="WIyWlLk6GJQsqaUBKTNV-0" />
        <mxCell id="WIyWlLk6GJQsqaUBKTNV-1" parent="WIyWlLk6GJQsqaUBKTNV-0" />
        <mxCell id="CKemps7H5j8_b2hBt7pS-38" value="" style="edgeStyle=orthogonalEdgeStyle;rounded=0;orthogonalLoop=1;jettySize=auto;html=1;exitX=0.5;exitY=1;exitDx=0;exitDy=0;" edge="1" parent="WIyWlLk6GJQsqaUBKTNV-1" source="CKemps7H5j8_b2hBt7pS-66" target="CKemps7H5j8_b2hBt7pS-37">
          <mxGeometry relative="1" as="geometry" />
        </mxCell>
        <mxCell id="CKemps7H5j8_b2hBt7pS-37" value="新建/编辑" style="rhombus;whiteSpace=wrap;html=1;rounded=1;glass=0;strokeWidth=1;shadow=0;" vertex="1" parent="WIyWlLk6GJQsqaUBKTNV-1">
          <mxGeometry x="410" y="40" width="80" height="80" as="geometry" />
        </mxCell>
        <mxCell id="CKemps7H5j8_b2hBt7pS-65" value="显示新建表单，表单项都为空" style="rounded=1;whiteSpace=wrap;html=1;glass=0;strokeWidth=1;shadow=0;" vertex="1" parent="WIyWlLk6GJQsqaUBKTNV-1">
          <mxGeometry x="580" y="50" width="120" height="60" as="geometry" />
        </mxCell>
        <mxCell id="CKemps7H5j8_b2hBt7pS-66" value="问题指引-合集管理" style="rounded=1;whiteSpace=wrap;html=1;fontSize=12;glass=0;strokeWidth=1;shadow=0;" vertex="1" parent="WIyWlLk6GJQsqaUBKTNV-1">
          <mxGeometry x="390" y="-55" width="120" height="40" as="geometry" />
        </mxCell>
        <mxCell id="CKemps7H5j8_b2hBt7pS-67" value="显示编辑表单，回显历史编辑数据" style="rounded=1;whiteSpace=wrap;html=1;glass=0;strokeWidth=1;shadow=0;" vertex="1" parent="WIyWlLk6GJQsqaUBKTNV-1">
          <mxGeometry x="180" y="50" width="120" height="60" as="geometry" />
        </mxCell>
        <mxCell id="CKemps7H5j8_b2hBt7pS-68" value="录入表单&lt;br&gt;提交/取消" style="rhombus;whiteSpace=wrap;html=1;rounded=1;glass=0;strokeWidth=1;shadow=0;" vertex="1" parent="WIyWlLk6GJQsqaUBKTNV-1">
          <mxGeometry x="380" y="200" width="140" height="80" as="geometry" />
        </mxCell>
        <mxCell id="CKemps7H5j8_b2hBt7pS-69" value="表单校验是否通过" style="rhombus;whiteSpace=wrap;html=1;rounded=1;glass=0;strokeWidth=1;shadow=0;" vertex="1" parent="WIyWlLk6GJQsqaUBKTNV-1">
          <mxGeometry x="395" y="340" width="110" height="80" as="geometry" />
        </mxCell>
        <mxCell id="CKemps7H5j8_b2hBt7pS-70" value="接口保存是否成功" style="rhombus;whiteSpace=wrap;html=1;" vertex="1" parent="WIyWlLk6GJQsqaUBKTNV-1">
          <mxGeometry x="395" y="469" width="110" height="80" as="geometry" />
        </mxCell>
        <mxCell id="CKemps7H5j8_b2hBt7pS-71" value="关闭录入表单" style="whiteSpace=wrap;html=1;rounded=1;glass=0;strokeWidth=1;shadow=0;" vertex="1" parent="WIyWlLk6GJQsqaUBKTNV-1">
          <mxGeometry x="590" y="210" width="120" height="60" as="geometry" />
        </mxCell>
        <mxCell id="CKemps7H5j8_b2hBt7pS-72" value="显示表单错误信息" style="whiteSpace=wrap;html=1;rounded=1;glass=0;strokeWidth=1;shadow=0;" vertex="1" parent="WIyWlLk6GJQsqaUBKTNV-1">
          <mxGeometry x="590" y="350" width="120" height="60" as="geometry" />
        </mxCell>
        <mxCell id="CKemps7H5j8_b2hBt7pS-73" value="toast提示接口报错信息" style="rounded=1;whiteSpace=wrap;html=1;" vertex="1" parent="WIyWlLk6GJQsqaUBKTNV-1">
          <mxGeometry x="590" y="479" width="120" height="60" as="geometry" />
        </mxCell>
        <mxCell id="CKemps7H5j8_b2hBt7pS-74" value="返回问题指引-合集管理" style="rounded=1;whiteSpace=wrap;html=1;fontSize=12;glass=0;strokeWidth=1;shadow=0;" vertex="1" parent="WIyWlLk6GJQsqaUBKTNV-1">
          <mxGeometry x="-110" y="489" width="120" height="40" as="geometry" />
        </mxCell>
        <mxCell id="CKemps7H5j8_b2hBt7pS-75" value="" style="endArrow=classic;html=1;rounded=0;entryX=0.5;entryY=0;entryDx=0;entryDy=0;exitX=0.5;exitY=1;exitDx=0;exitDy=0;" edge="1" source="CKemps7H5j8_b2hBt7pS-74" target="CKemps7H5j8_b2hBt7pS-76" parent="WIyWlLk6GJQsqaUBKTNV-1">
          <mxGeometry width="50" height="50" relative="1" as="geometry">
            <mxPoint x="230" y="669" as="sourcePoint" />
            <mxPoint x="-50" y="629" as="targetPoint" />
          </mxGeometry>
        </mxCell>
        <mxCell id="CKemps7H5j8_b2hBt7pS-76" value="查询列表" style="rhombus;whiteSpace=wrap;html=1;" vertex="1" parent="WIyWlLk6GJQsqaUBKTNV-1">
          <mxGeometry x="-90" y="559" width="80" height="80" as="geometry" />
        </mxCell>
        <mxCell id="CKemps7H5j8_b2hBt7pS-77" value="toast提示错误信息" style="whiteSpace=wrap;html=1;rounded=1;" vertex="1" parent="WIyWlLk6GJQsqaUBKTNV-1">
          <mxGeometry x="-300" y="569" width="140" height="60" as="geometry" />
        </mxCell>
        <mxCell id="CKemps7H5j8_b2hBt7pS-78" value="展示列表数据" style="rounded=1;whiteSpace=wrap;html=1;" vertex="1" parent="WIyWlLk6GJQsqaUBKTNV-1">
          <mxGeometry x="-110" y="678" width="120" height="60" as="geometry" />
        </mxCell>
        <mxCell id="CKemps7H5j8_b2hBt7pS-79" value="" style="endArrow=classic;html=1;rounded=0;edgeStyle=orthogonalEdgeStyle;exitX=0;exitY=0.5;exitDx=0;exitDy=0;entryX=1;entryY=0.5;entryDx=0;entryDy=0;" edge="1" source="CKemps7H5j8_b2hBt7pS-76" target="CKemps7H5j8_b2hBt7pS-77" parent="WIyWlLk6GJQsqaUBKTNV-1">
          <mxGeometry relative="1" as="geometry">
            <mxPoint x="200" y="659" as="sourcePoint" />
            <mxPoint x="280" y="659" as="targetPoint" />
          </mxGeometry>
        </mxCell>
        <mxCell id="CKemps7H5j8_b2hBt7pS-80" value="错误" style="edgeLabel;resizable=0;html=1;align=center;verticalAlign=middle;" connectable="0" vertex="1" parent="CKemps7H5j8_b2hBt7pS-79">
          <mxGeometry relative="1" as="geometry" />
        </mxCell>
        <mxCell id="CKemps7H5j8_b2hBt7pS-81" value="" style="endArrow=classic;html=1;rounded=0;edgeStyle=orthogonalEdgeStyle;exitX=0.5;exitY=1;exitDx=0;exitDy=0;entryX=0.5;entryY=0;entryDx=0;entryDy=0;" edge="1" source="CKemps7H5j8_b2hBt7pS-76" target="CKemps7H5j8_b2hBt7pS-78" parent="WIyWlLk6GJQsqaUBKTNV-1">
          <mxGeometry relative="1" as="geometry">
            <mxPoint x="200" y="659" as="sourcePoint" />
            <mxPoint x="300" y="659" as="targetPoint" />
          </mxGeometry>
        </mxCell>
        <mxCell id="CKemps7H5j8_b2hBt7pS-82" value="成功" style="edgeLabel;resizable=0;html=1;align=center;verticalAlign=middle;" connectable="0" vertex="1" parent="CKemps7H5j8_b2hBt7pS-81">
          <mxGeometry relative="1" as="geometry" />
        </mxCell>
        <mxCell id="CKemps7H5j8_b2hBt7pS-83" value="" style="endArrow=classic;html=1;rounded=0;edgeStyle=orthogonalEdgeStyle;exitX=0;exitY=0.5;exitDx=0;exitDy=0;entryX=1;entryY=0.5;entryDx=0;entryDy=0;" edge="1" parent="WIyWlLk6GJQsqaUBKTNV-1" source="CKemps7H5j8_b2hBt7pS-37" target="CKemps7H5j8_b2hBt7pS-67">
          <mxGeometry relative="1" as="geometry">
            <mxPoint x="440" y="340" as="sourcePoint" />
            <mxPoint x="540" y="340" as="targetPoint" />
          </mxGeometry>
        </mxCell>
        <mxCell id="CKemps7H5j8_b2hBt7pS-84" value="编辑" style="edgeLabel;resizable=0;html=1;align=center;verticalAlign=middle;" connectable="0" vertex="1" parent="CKemps7H5j8_b2hBt7pS-83">
          <mxGeometry relative="1" as="geometry" />
        </mxCell>
        <mxCell id="CKemps7H5j8_b2hBt7pS-85" value="" style="endArrow=classic;html=1;rounded=0;edgeStyle=orthogonalEdgeStyle;exitX=0.5;exitY=1;exitDx=0;exitDy=0;entryX=0.5;entryY=0;entryDx=0;entryDy=0;" edge="1" parent="WIyWlLk6GJQsqaUBKTNV-1" source="CKemps7H5j8_b2hBt7pS-67" target="CKemps7H5j8_b2hBt7pS-68">
          <mxGeometry relative="1" as="geometry">
            <mxPoint x="440" y="440" as="sourcePoint" />
            <mxPoint x="450" y="180" as="targetPoint" />
          </mxGeometry>
        </mxCell>
        <mxCell id="CKemps7H5j8_b2hBt7pS-87" value="" style="endArrow=classic;html=1;rounded=0;edgeStyle=orthogonalEdgeStyle;exitX=1;exitY=0.5;exitDx=0;exitDy=0;entryX=0;entryY=0.5;entryDx=0;entryDy=0;" edge="1" parent="WIyWlLk6GJQsqaUBKTNV-1" source="CKemps7H5j8_b2hBt7pS-70" target="CKemps7H5j8_b2hBt7pS-73">
          <mxGeometry relative="1" as="geometry">
            <mxPoint x="440" y="449" as="sourcePoint" />
            <mxPoint x="540" y="534" as="targetPoint" />
          </mxGeometry>
        </mxCell>
        <mxCell id="CKemps7H5j8_b2hBt7pS-88" value="失败" style="edgeLabel;resizable=0;html=1;align=center;verticalAlign=middle;" connectable="0" vertex="1" parent="CKemps7H5j8_b2hBt7pS-87">
          <mxGeometry relative="1" as="geometry" />
        </mxCell>
        <mxCell id="CKemps7H5j8_b2hBt7pS-89" value="" style="endArrow=classic;html=1;rounded=0;edgeStyle=orthogonalEdgeStyle;exitX=1;exitY=0.5;exitDx=0;exitDy=0;entryX=0;entryY=0.5;entryDx=0;entryDy=0;" edge="1" parent="WIyWlLk6GJQsqaUBKTNV-1" source="CKemps7H5j8_b2hBt7pS-69" target="CKemps7H5j8_b2hBt7pS-72">
          <mxGeometry relative="1" as="geometry">
            <mxPoint x="440" y="410" as="sourcePoint" />
            <mxPoint x="540" y="410" as="targetPoint" />
          </mxGeometry>
        </mxCell>
        <mxCell id="CKemps7H5j8_b2hBt7pS-90" value="否" style="edgeLabel;resizable=0;html=1;align=center;verticalAlign=middle;" connectable="0" vertex="1" parent="CKemps7H5j8_b2hBt7pS-89">
          <mxGeometry relative="1" as="geometry" />
        </mxCell>
        <mxCell id="CKemps7H5j8_b2hBt7pS-91" value="" style="endArrow=classic;html=1;rounded=0;edgeStyle=orthogonalEdgeStyle;exitX=1;exitY=0.5;exitDx=0;exitDy=0;entryX=0;entryY=0.5;entryDx=0;entryDy=0;" edge="1" parent="WIyWlLk6GJQsqaUBKTNV-1" source="CKemps7H5j8_b2hBt7pS-68" target="CKemps7H5j8_b2hBt7pS-71">
          <mxGeometry relative="1" as="geometry">
            <mxPoint x="440" y="390" as="sourcePoint" />
            <mxPoint x="540" y="240" as="targetPoint" />
          </mxGeometry>
        </mxCell>
        <mxCell id="CKemps7H5j8_b2hBt7pS-92" value="取消" style="edgeLabel;resizable=0;html=1;align=center;verticalAlign=middle;" connectable="0" vertex="1" parent="CKemps7H5j8_b2hBt7pS-91">
          <mxGeometry relative="1" as="geometry" />
        </mxCell>
        <mxCell id="CKemps7H5j8_b2hBt7pS-93" value="" style="endArrow=classic;html=1;rounded=0;edgeStyle=orthogonalEdgeStyle;exitX=1;exitY=0.5;exitDx=0;exitDy=0;entryX=0;entryY=0.5;entryDx=0;entryDy=0;" edge="1" parent="WIyWlLk6GJQsqaUBKTNV-1" source="CKemps7H5j8_b2hBt7pS-37" target="CKemps7H5j8_b2hBt7pS-65">
          <mxGeometry relative="1" as="geometry">
            <mxPoint x="440" y="340" as="sourcePoint" />
            <mxPoint x="540" y="340" as="targetPoint" />
          </mxGeometry>
        </mxCell>
        <mxCell id="CKemps7H5j8_b2hBt7pS-94" value="新建" style="edgeLabel;resizable=0;html=1;align=center;verticalAlign=middle;" connectable="0" vertex="1" parent="CKemps7H5j8_b2hBt7pS-93">
          <mxGeometry relative="1" as="geometry" />
        </mxCell>
        <mxCell id="CKemps7H5j8_b2hBt7pS-108" value="" style="endArrow=classic;html=1;rounded=0;edgeStyle=orthogonalEdgeStyle;exitX=0.5;exitY=1;exitDx=0;exitDy=0;entryX=0.5;entryY=0;entryDx=0;entryDy=0;" edge="1" parent="WIyWlLk6GJQsqaUBKTNV-1" source="CKemps7H5j8_b2hBt7pS-65" target="CKemps7H5j8_b2hBt7pS-68">
          <mxGeometry relative="1" as="geometry">
            <mxPoint x="440" y="240" as="sourcePoint" />
            <mxPoint x="450" y="180" as="targetPoint" />
            <Array as="points">
              <mxPoint x="640" y="155" />
              <mxPoint x="450" y="155" />
            </Array>
          </mxGeometry>
        </mxCell>
        <mxCell id="CKemps7H5j8_b2hBt7pS-110" value="" style="endArrow=classic;html=1;rounded=0;edgeStyle=orthogonalEdgeStyle;exitX=0.5;exitY=1;exitDx=0;exitDy=0;entryX=0.5;entryY=0;entryDx=0;entryDy=0;" edge="1" parent="WIyWlLk6GJQsqaUBKTNV-1" source="CKemps7H5j8_b2hBt7pS-68" target="CKemps7H5j8_b2hBt7pS-69">
          <mxGeometry relative="1" as="geometry">
            <mxPoint x="440" y="260" as="sourcePoint" />
            <mxPoint x="540" y="260" as="targetPoint" />
          </mxGeometry>
        </mxCell>
        <mxCell id="CKemps7H5j8_b2hBt7pS-111" value="提交" style="edgeLabel;resizable=0;html=1;align=center;verticalAlign=middle;" connectable="0" vertex="1" parent="CKemps7H5j8_b2hBt7pS-110">
          <mxGeometry relative="1" as="geometry" />
        </mxCell>
        <mxCell id="CKemps7H5j8_b2hBt7pS-112" value="" style="endArrow=classic;html=1;rounded=0;edgeStyle=orthogonalEdgeStyle;exitX=0.5;exitY=1;exitDx=0;exitDy=0;entryX=0.5;entryY=0;entryDx=0;entryDy=0;" edge="1" parent="WIyWlLk6GJQsqaUBKTNV-1" source="CKemps7H5j8_b2hBt7pS-69" target="CKemps7H5j8_b2hBt7pS-70">
          <mxGeometry relative="1" as="geometry">
            <mxPoint x="440" y="260" as="sourcePoint" />
            <mxPoint x="540" y="260" as="targetPoint" />
          </mxGeometry>
        </mxCell>
        <mxCell id="CKemps7H5j8_b2hBt7pS-113" value="是" style="edgeLabel;resizable=0;html=1;align=center;verticalAlign=middle;" connectable="0" vertex="1" parent="CKemps7H5j8_b2hBt7pS-112">
          <mxGeometry relative="1" as="geometry" />
        </mxCell>
        <mxCell id="CKemps7H5j8_b2hBt7pS-114" value="" style="endArrow=classic;html=1;rounded=0;edgeStyle=orthogonalEdgeStyle;exitX=0;exitY=0.5;exitDx=0;exitDy=0;entryX=1;entryY=0.5;entryDx=0;entryDy=0;" edge="1" parent="WIyWlLk6GJQsqaUBKTNV-1" source="CKemps7H5j8_b2hBt7pS-70" target="CKemps7H5j8_b2hBt7pS-74">
          <mxGeometry relative="1" as="geometry">
            <mxPoint x="440" y="449" as="sourcePoint" />
            <mxPoint x="540" y="449" as="targetPoint" />
          </mxGeometry>
        </mxCell>
        <mxCell id="CKemps7H5j8_b2hBt7pS-115" value="成功" style="edgeLabel;resizable=0;html=1;align=center;verticalAlign=middle;" connectable="0" vertex="1" parent="CKemps7H5j8_b2hBt7pS-114">
          <mxGeometry relative="1" as="geometry" />
        </mxCell>
        <mxCell id="CKemps7H5j8_b2hBt7pS-126" value="" style="edgeStyle=orthogonalEdgeStyle;rounded=0;orthogonalLoop=1;jettySize=auto;html=1;" edge="1" parent="WIyWlLk6GJQsqaUBKTNV-1" source="CKemps7H5j8_b2hBt7pS-120" target="CKemps7H5j8_b2hBt7pS-125">
          <mxGeometry relative="1" as="geometry" />
        </mxCell>
        <mxCell id="CKemps7H5j8_b2hBt7pS-120" value="问题指引-合集管理" style="rounded=1;whiteSpace=wrap;html=1;fontSize=12;glass=0;strokeWidth=1;shadow=0;" vertex="1" parent="WIyWlLk6GJQsqaUBKTNV-1">
          <mxGeometry x="-110" y="-55" width="120" height="40" as="geometry" />
        </mxCell>
        <mxCell id="CKemps7H5j8_b2hBt7pS-131" value="" style="edgeStyle=orthogonalEdgeStyle;rounded=0;orthogonalLoop=1;jettySize=auto;html=1;" edge="1" parent="WIyWlLk6GJQsqaUBKTNV-1" source="CKemps7H5j8_b2hBt7pS-125" target="CKemps7H5j8_b2hBt7pS-130">
          <mxGeometry relative="1" as="geometry" />
        </mxCell>
        <mxCell id="CKemps7H5j8_b2hBt7pS-125" value="点击上架/下架" style="whiteSpace=wrap;html=1;rounded=1;glass=0;strokeWidth=1;shadow=0;" vertex="1" parent="WIyWlLk6GJQsqaUBKTNV-1">
          <mxGeometry x="-110" y="50" width="120" height="60" as="geometry" />
        </mxCell>
        <mxCell id="CKemps7H5j8_b2hBt7pS-133" value="" style="edgeStyle=orthogonalEdgeStyle;rounded=0;orthogonalLoop=1;jettySize=auto;html=1;" edge="1" parent="WIyWlLk6GJQsqaUBKTNV-1" source="CKemps7H5j8_b2hBt7pS-130" target="CKemps7H5j8_b2hBt7pS-132">
          <mxGeometry relative="1" as="geometry" />
        </mxCell>
        <mxCell id="CKemps7H5j8_b2hBt7pS-135" value="" style="edgeStyle=orthogonalEdgeStyle;rounded=0;orthogonalLoop=1;jettySize=auto;html=1;" edge="1" parent="WIyWlLk6GJQsqaUBKTNV-1" source="CKemps7H5j8_b2hBt7pS-130" target="CKemps7H5j8_b2hBt7pS-134">
          <mxGeometry relative="1" as="geometry" />
        </mxCell>
        <mxCell id="CKemps7H5j8_b2hBt7pS-130" value="出现二次确认提示框" style="rhombus;whiteSpace=wrap;html=1;rounded=1;glass=0;strokeWidth=1;shadow=0;" vertex="1" parent="WIyWlLk6GJQsqaUBKTNV-1">
          <mxGeometry x="-170" y="150" width="240" height="80" as="geometry" />
        </mxCell>
        <mxCell id="CKemps7H5j8_b2hBt7pS-132" value="关闭确认框" style="whiteSpace=wrap;html=1;rounded=1;glass=0;strokeWidth=1;shadow=0;" vertex="1" parent="WIyWlLk6GJQsqaUBKTNV-1">
          <mxGeometry x="-360" y="160" width="120" height="60" as="geometry" />
        </mxCell>
        <mxCell id="CKemps7H5j8_b2hBt7pS-137" value="" style="edgeStyle=orthogonalEdgeStyle;rounded=0;orthogonalLoop=1;jettySize=auto;html=1;" edge="1" parent="WIyWlLk6GJQsqaUBKTNV-1" source="CKemps7H5j8_b2hBt7pS-134" target="CKemps7H5j8_b2hBt7pS-136">
          <mxGeometry relative="1" as="geometry" />
        </mxCell>
        <mxCell id="CKemps7H5j8_b2hBt7pS-138" style="edgeStyle=orthogonalEdgeStyle;rounded=0;orthogonalLoop=1;jettySize=auto;html=1;entryX=0.5;entryY=0;entryDx=0;entryDy=0;" edge="1" parent="WIyWlLk6GJQsqaUBKTNV-1" source="CKemps7H5j8_b2hBt7pS-134" target="CKemps7H5j8_b2hBt7pS-74">
          <mxGeometry relative="1" as="geometry" />
        </mxCell>
        <mxCell id="CKemps7H5j8_b2hBt7pS-134" value="接口返回是否成功" style="rhombus;whiteSpace=wrap;html=1;rounded=1;glass=0;strokeWidth=1;shadow=0;" vertex="1" parent="WIyWlLk6GJQsqaUBKTNV-1">
          <mxGeometry x="-170" y="310" width="240" height="80" as="geometry" />
        </mxCell>
        <mxCell id="CKemps7H5j8_b2hBt7pS-136" value="toast提示接口报错信息" style="rounded=1;whiteSpace=wrap;html=1;" vertex="1" parent="WIyWlLk6GJQsqaUBKTNV-1">
          <mxGeometry x="-360" y="320" width="120" height="60" as="geometry" />
        </mxCell>
        <mxCell id="CKemps7H5j8_b2hBt7pS-151" value="" style="edgeStyle=orthogonalEdgeStyle;rounded=0;orthogonalLoop=1;jettySize=auto;html=1;" edge="1" parent="WIyWlLk6GJQsqaUBKTNV-1" source="CKemps7H5j8_b2hBt7pS-147" target="CKemps7H5j8_b2hBt7pS-69">
          <mxGeometry relative="1" as="geometry" />
        </mxCell>
        <mxCell id="CKemps7H5j8_b2hBt7pS-147" value="表单校验规则" style="swimlane;whiteSpace=wrap;html=1;" vertex="1" parent="WIyWlLk6GJQsqaUBKTNV-1">
          <mxGeometry x="150" y="310" width="200" height="140" as="geometry">
            <mxRectangle x="150" y="270" width="110" height="30" as="alternateBounds" />
          </mxGeometry>
        </mxCell>
        <mxCell id="CKemps7H5j8_b2hBt7pS-150" value="&lt;div&gt;&lt;/div&gt;1. 设备分类，合集名称，合集图标都是必填项&lt;br&gt;&lt;br&gt;2.合集排序，必填只能输入正整数" style="text;strokeColor=none;fillColor=none;align=left;verticalAlign=middle;spacingLeft=4;spacingRight=4;overflow=hidden;points=[[0,0.5],[1,0.5]];portConstraint=eastwest;rotatable=0;whiteSpace=wrap;html=1;" vertex="1" parent="CKemps7H5j8_b2hBt7pS-147">
          <mxGeometry y="40" width="200" height="100" as="geometry" />
        </mxCell>
      </root>
    </mxGraphModel>
  </diagram>
</mxfile>
